<?xml version="1.0" encoding="UTF-8"?>
<svg xmlns="http://www.w3.org/2000/svg" xmlns:xlink="http://www.w3.org/1999/xlink" viewBox="0 0 9.28 10.97">
  <defs>
    <style>
      .cls-1 {
        fill: #fff;
      }

      .cls-1, .cls-2 {
        mix-blend-mode: overlay;
      }

      .cls-3 {
        fill: url(#linear-gradient);
      }

      .cls-4 {
        isolation: isolate;
      }

      .cls-2 {
        fill: url(#linear-gradient-2);
      }

      .cls-5 {
        fill: #bd0000;
      }
    </style>
    <linearGradient id="linear-gradient" x1="1231.22" y1="80.04" x2="1240.31" y2="80.04" gradientTransform="translate(1233.83 -145.12) rotate(176.72) scale(1 -1)" gradientUnits="userSpaceOnUse">
      <stop offset="0" stop-color="#fe5151"/>
      <stop offset="1" stop-color="red"/>
    </linearGradient>
    <linearGradient id="linear-gradient-2" x1="1240.94" y1="130.29" x2="1241.03" y2="125.58" gradientTransform="translate(1246.65 -111.74) rotate(-179.52) scale(1 -1)" gradientUnits="userSpaceOnUse">
      <stop offset="0" stop-color="#fff" stop-opacity="0"/>
      <stop offset="1" stop-color="#fff"/>
    </linearGradient>
  </defs>
  <g class="cls-4">
    <g id="Layer_2" data-name="Layer 2">
      <g id="Layer_1-2" data-name="Layer 1">
        <g>
          <g>
            <path class="cls-3" d="M9.25,5.55c-2.61,1.22-3.5,2.22-4.6,5.21C3.6,7.75,2.73,6.73.14,5.47,2.75,4.25,3.63,3.25,4.73.26c1.06,3.01,1.92,4.03,4.52,5.3Z"/>
            <path class="cls-1" d="M4.58,1.9c-.19.4-.38.8-.6,1.18-.21.39-.43.77-.7,1.11-.25.33-.61.57-1,.75-.39.18-.82.3-1.23.38l-.59.11.57.2c.35.12.7.31,1.03.51.33.21.63.45.91.71.28.27.53.56.74.89.23.32.39.67.55,1.03-.1-.38-.23-.76-.43-1.11-.19-.35-.43-.68-.7-.98-.27-.3-.58-.57-.92-.79-.34-.23-.7-.42-1.1-.57l-.03.3c.46-.08.9-.22,1.32-.41.41-.2.82-.48,1.08-.88.25-.38.45-.78.63-1.18.17-.41.33-.82.45-1.25Z"/>
            <path class="cls-5" d="M7.62,4.77c-.52-.32-1.01-.7-1.42-1.18-.82-.95-1.3-2.12-1.7-3.26h.48c-.41,1.14-.9,2.3-1.73,3.25-.82.97-1.96,1.53-3.05,2v-.25c1.06.57,2.12,1.2,2.91,2.15.78.95,1.3,2.07,1.74,3.2h-.38c.4-1.14.89-2.3,1.71-3.24.41-.47.91-.85,1.43-1.16.53-.31,1.08-.57,1.62-.74-.54-.2-1.09-.46-1.61-.78ZM7.74,6.51c-.49.34-.92.74-1.28,1.19-.74.9-1.17,2.03-1.61,3.13h0c-.02.06-.06.11-.12.13-.11.04-.22-.02-.26-.13-.37-1.13-.74-2.3-1.49-3.23-.73-.95-1.82-1.52-2.9-2.01-.03-.01-.05-.03-.06-.06-.03-.07,0-.15.06-.18h0c1.05-.55,2.09-1.16,2.81-2.06.73-.89,1.17-2.01,1.6-3.12.03-.07.08-.12.15-.15.13-.05.28.02.33.15.41,1.12.81,2.25,1.52,3.18.35.46.78.87,1.26,1.22.47.35.98.66,1.52.99-.53.33-1.05.62-1.53.96Z"/>
          </g>
          <path class="cls-2" d="M7.23,5.53c-1.46.68-1.95,1.24-2.56,2.91-.59-1.68-1.07-2.25-2.52-2.95,1.46-.68,1.95-1.24,2.56-2.91.59,1.68,1.07,2.25,2.52,2.95Z"/>
        </g>
      </g>
    </g>
  </g>
</svg>