<?xml version="1.0" encoding="UTF-8"?>
<svg id="Layer_2" data-name="Layer 2" xmlns="http://www.w3.org/2000/svg" viewBox="0 0 55.11 87.89">
  <defs>
    <style>
      .cls-1 {
        fill: #fff;
      }
    </style>
  </defs>
  <g id="Layer_1-2" data-name="Layer 1">
    <g>
      <g>
        <path class="cls-1" d="M9.55,86.43c-.37,0-.74-.14-1.02-.41-.53-.52-.59-1.37-.12-1.95l18.15-22.72-23.46,3.17c-.06,0-.13.01-.19.01-.37,0-.73-.14-1.01-.4-.32-.31-.48-.74-.44-1.18L5.78,14.81c.05-.6.47-1.11,1.05-1.27L39.19,4.41c.13-.04.26-.05.4-.05.41,0,.8.17,1.08.48.37.41.48,1,.27,1.51l-15.7,39.17,27.09,2.32c.59.05,1.09.45,1.26,1.01.18.56,0,1.18-.45,1.55L10.48,86.09c-.27.23-.6.34-.93.34Z"/>
        <path d="M39.59,5.81l-16.43,40.99,29.04,2.49L9.55,84.98l20.41-25.56-27.05,3.65L7.23,14.94,39.59,5.81M39.59,2.9c-.26,0-.53.04-.79.11L6.44,12.14c-1.16.33-2,1.34-2.11,2.54L.01,62.81c-.08.88.25,1.75.89,2.36.55.52,1.27.81,2.01.81.13,0,.26,0,.39-.03l19.86-2.68-15.88,19.89c-.93,1.17-.83,2.85.24,3.9.56.55,1.3.83,2.03.83.66,0,1.32-.22,1.87-.68l42.65-35.68c.9-.76,1.26-1.98.91-3.11-.35-1.12-1.35-1.92-2.53-2.02l-25.13-2.15L42.29,6.9c.41-1.03.2-2.2-.54-3.03-.56-.62-1.35-.96-2.16-.96h0ZM39.59,8.72h0,0Z"/>
      </g>
      <polygon class="cls-1" points="45.48 0 23.16 46.8 52.2 49.29 9.55 84.98 29.96 59.42 2.91 63.07 4.72 5.81 45.48 0"/>
    </g>
  </g>
</svg>