<?xml version="1.0" encoding="UTF-8"?>
<svg id="Layer_2" data-name="Layer 2" xmlns="http://www.w3.org/2000/svg" xmlns:xlink="http://www.w3.org/1999/xlink" viewBox="0 0 46.31 37.9">
  <defs>
    <style>
      .cls-1 {
        fill: none;
      }

      .cls-2 {
        clip-path: url(#clippath);
      }
    </style>
    <clipPath id="clippath">
      <path class="cls-1" d="M11.42,0L0,37.9h39.6s7.46-21.81,6.65-24.04-8.56-10.43-9.19-11.43S24.86,0,24.86,0"/>
    </clipPath>
  </defs>
  <g id="Layer_1-2" data-name="Layer 1">
    <g class="cls-2">
      <g>
        <path d="M-10.72-3.14c1.28,3.73,2.43,7.52,3.57,11.31,1.11,3.8,2.22,7.61,3.17,11.48.96,3.87,1.83,7.77,2.88,11.6.52,1.92,1.08,3.82,1.62,5.72l1.73,5.68v.04s.02.07.02.07c.14,3.77.21,7.54.27,11.32.07,3.78.13,7.55.12,11.34,0,3.78-.06,7.57-.1,11.36-.08,3.79-.17,7.59-.34,11.39h-.12c-.22-3.74-.35-7.51-.48-11.28-.09-3.77-.21-7.54-.25-11.32-.06-3.78-.04-7.56-.02-11.35.01-3.79.04-7.57.13-11.37l.02.11L.07,37.16c-.51-1.92-1-3.85-1.54-5.76-1.06-3.82-2.3-7.58-3.45-11.36-1.16-3.78-2.16-7.63-3.16-11.48-.98-3.86-1.93-7.73-2.76-11.65l.12-.05Z"/>
        <path d="M23.27,6.04c-1.59,3.18-3.29,6.3-4.99,9.41-1.72,3.1-3.47,6.19-5.3,9.22-1.85,3.02-3.77,6-5.59,9.04-1.81,3.05-3.54,6.15-5.23,9.26v.03s-.05.04-.05.04c-2.32,2.72-4.65,5.43-7.03,8.09-2.37,2.67-4.73,5.34-7.14,7.97-2.41,2.62-4.86,5.21-7.31,7.79-2.46,2.57-4.94,5.12-7.48,7.61l-.08-.09c2.26-2.78,4.58-5.51,6.91-8.21,2.34-2.69,4.69-5.39,7.07-8.04,2.39-2.65,4.82-5.24,7.25-7.85,2.42-2.61,4.88-5.18,7.36-7.73l-.05.07c1.86-3.01,3.69-6.05,5.44-9.14,1.73-3.1,3.37-6.25,5.08-9.36,1.72-3.1,3.53-6.15,5.37-9.18,1.85-3.02,3.71-6.04,5.68-8.99l.1.06Z"/>
        <path d="M-40.03,60.29c3.43-1.7,6.89-3.27,10.36-4.81,3.47-1.52,6.95-3.04,10.48-4.37,3.52-1.35,7.06-2.63,10.55-4.1,3.49-1.47,6.95-3.03,10.41-4.62l-.03.02c2.97-1.66,5.95-3.28,8.94-4.88,2.99-1.61,5.98-3.21,8.99-4.74,3.01-1.55,6.04-3.02,9.07-4.53,3.04-1.47,6.08-2.93,9.15-4.31l.04.12c-2.93,1.76-5.9,3.42-8.86,5.09-2.98,1.63-5.95,3.29-8.94,4.87-2.99,1.6-6,3.14-9.02,4.66-3.01,1.53-6.03,3.05-9.07,4.52h-.03s0,.02,0,.02c-3.53,1.33-7.04,2.7-10.54,4.15-3.49,1.46-6.93,3.1-10.39,4.68-3.46,1.59-6.96,3-10.47,4.4-3.51,1.38-7.03,2.73-10.59,3.96l-.03-.12Z"/>
        <path d="M9.2-1.79c-.4,3.67-.92,7.33-1.46,10.99-.56,3.66-1.14,7.31-1.84,10.96-.72,3.64-1.52,7.28-2.17,10.93-.65,3.65-1.2,7.31-1.72,10.97v.03s-.02.05-.02.05c-1.21,3.45-2.45,6.88-3.74,10.3-1.28,3.42-2.55,6.85-3.88,10.25-1.33,3.4-2.72,6.78-4.11,10.17-1.41,3.38-2.83,6.75-4.33,10.09l-.11-.04c1.13-3.47,2.34-6.92,3.57-10.36,1.25-3.43,2.49-6.87,3.79-10.28,1.3-3.42,2.66-6.81,4.01-10.2,1.35-3.4,2.74-6.78,4.16-10.15l-.02.08c.73-3.64,1.43-7.29,2.02-10.94.59-3.65,1.03-7.32,1.56-10.98.55-3.66,1.21-7.31,1.9-10.95.71-3.64,1.43-7.29,2.28-10.92h.12Z"/>
        <path d="M-25.48,16.84c2.48,1.97,4.87,4.06,7.26,6.15,2.37,2.11,4.73,4.24,7.01,6.45l6.76,6.76c1.14,1.11,2.31,2.19,3.49,3.25,1.17,1.08,2.36,2.12,3.56,3.16l.04.04.03.08c1.3,3.24,2.6,6.49,3.84,9.76,1.23,3.28,2.49,6.54,3.68,9.85,1.18,3.3,2.31,6.64,3.43,9.97,1.11,3.34,2.19,6.7,3.2,10.1l-.11.06c-1.39-3.2-2.7-6.43-3.99-9.69-1.27-3.26-2.54-6.52-3.75-9.81-1.21-3.29-2.35-6.62-3.51-9.93-1.16-3.32-2.26-6.66-3.35-10.02l.07.11c-1.13-1.13-2.26-2.25-3.42-3.33-1.15-1.1-2.31-2.19-3.49-3.24l-7.19-6.23c-2.37-2.12-4.66-4.31-6.94-6.54-2.26-2.24-4.52-4.49-6.69-6.84l.08-.1Z"/>
        <path d="M-33.55,57.65c.02-.05.11-.16.16-.19l.13-.11c.09-.07.17-.14.26-.22.16-.16.34-.3.49-.46.33-.32.63-.65.93-1,.3-.34.56-.72.84-1.09.24-.39.5-.77.72-1.17.88-1.61,1.39-3.4,1.44-5.17,0-1.77-.39-3.46-1.02-5.02-.33-.77-.76-1.49-1.14-2.23l-1.42-2.04-.23-.34.34-.29c1.3-1.11,2.53-2.4,3.65-3.75,1.12-1.36,2.15-2.8,3.04-4.32.91-1.52,1.6-3.15,2.14-4.81.55-1.67.77-3.39.87-5.09l.03-.42.37-.15c1.44-.59,2.89-1.38,4.26-2.24,1.37-.88,2.69-1.86,3.91-2.98,1.2-1.13,2.28-2.41,3.19-3.8.9-1.41,1.51-2.96,1.95-4.55l.19-.7.55.29c1.16.62,2.49,1.07,3.83,1.35,1.34.28,2.74.37,4.14.25,1.4-.1,2.8-.47,4.14-1.06,1.36-.54,2.59-1.45,3.78-2.39l.34-.27.1.4c.33,1.33.88,2.63,1.62,3.74.74,1.12,1.7,2.06,2.84,2.66,1.14.59,2.44.91,3.78.76l.5-.02c.17-.02.33-.07.5-.1l1-.21c.66-.19,1.31-.47,1.97-.7l.29-.1-.05.32c-.32,1.91-.23,3.89.18,5.71.41,1.83,1.17,3.52,2.2,4.99,1.09,1.41,2.38,2.62,3.85,3.56.71.5,1.53.84,2.28,1.26.81.33,1.63.63,2.44.95l.52.2-.47.43c-1.5,1.38-2.59,3.38-3.25,5.39-.63,2.05-.87,4.19-.75,6.28.11,2.11.43,4.18.97,6.14.57,1.93,1.38,3.85,2.5,5.29l.52.67-.82.34c-.97.4-2,1.06-2.92,1.76-.94.72-1.83,1.52-2.65,2.41-1.67,1.74-3.07,3.78-4.28,5.92-1.19,2.16-2.31,4.44-3.42,6.68-1.09,2.24-2.22,4.54-3.1,6.78l-.25.63-.57-.14c-.95-.24-2.06-.31-3.12-.22-1.07.09-2.13.36-3.14.81-1.01.44-1.96,1.06-2.79,1.87-.86.77-1.54,1.75-2.18,2.74l-.45.7-.51-.52c-.84-.85-1.87-1.61-2.93-2.22-1.07-.61-2.22-1.07-3.41-1.34-1.19-.29-2.45-.32-3.7-.15-1.26.13-2.48.63-3.67,1.18l-.55.25-.14-.57c-.28-1.12-.76-2.26-1.37-3.24-.61-1-1.38-1.87-2.26-2.57-.88-.7-1.87-1.28-2.96-1.6-.53-.21-1.1-.28-1.66-.4-.57-.09-1.15-.09-1.73-.14l-.3-.03-.03-.29c-.18-1.59-.51-3.17-.96-4.69-.46-1.51-1.05-2.97-1.85-4.26-.8-1.29-1.86-2.4-3.19-3.03-.67-.3-1.39-.48-2.14-.53-.74-.06-1.51.11-2.34.21ZM-33.44,57.59c.4-.12.67-.26,1.09-.29.39-.07.78-.09,1.17-.09.77.02,1.54.17,2.24.45,1.42.59,2.56,1.71,3.44,3.01.88,1.3,1.54,2.78,2.04,4.31.5,1.54.88,3.12,1.1,4.79l-.33-.31c.61.03,1.23.02,1.84.1.6.11,1.21.16,1.79.37,1.18.31,2.27.9,3.25,1.64.98.74,1.82,1.68,2.5,2.74.68,1.07,1.21,2.22,1.56,3.55l-.69-.32c1.29-.62,2.62-1.19,4-1.36,1.37-.21,2.76-.2,4.07.09,1.31.27,2.56.75,3.72,1.39,1.16.65,2.22,1.42,3.2,2.4l-.97.18c.71-1.1,1.46-2.2,2.44-3.08.93-.92,2.03-1.64,3.18-2.15,1.15-.52,2.35-.82,3.54-.92,1.2-.09,2.35-.04,3.54.25l-.82.49c.96-2.45,2.04-4.68,3.16-6.96,1.14-2.26,2.26-4.49,3.51-6.73,1.28-2.22,2.76-4.35,4.54-6.18.87-.93,1.83-1.77,2.83-2.53,1.02-.76,2.04-1.42,3.26-1.91l-.3,1.01c-1.32-1.72-2.05-3.69-2.64-5.75-.54-2.07-.83-4.23-.9-6.41-.08-2.2.21-4.47.91-6.63.76-2.15,1.89-4.2,3.62-5.75l.05.64c-.83-.34-1.66-.67-2.47-1.03-.77-.46-1.59-.82-2.32-1.35-1.49-1-2.8-2.29-3.89-3.76-2.1-3.03-3.07-7.06-2.38-11.08l.24.22c-.67.23-1.34.52-2.02.72l-1.03.23c-.17.03-.34.09-.52.1l-.52.03c-1.39.16-2.78-.15-3.99-.76-1.21-.62-2.23-1.6-3.01-2.76-.78-1.17-1.39-2.44-1.78-3.88l.44.13c-1.21,1.01-2.48,1.99-3.9,2.6-1.39.66-2.87,1.09-4.35,1.23-1.47.17-2.95.11-4.37-.15-1.43-.27-2.79-.67-4.11-1.34l.74-.4c-.44,1.74-1.12,3.44-2.07,4.96-.97,1.51-2.11,2.88-3.38,4.08-1.28,1.18-2.65,2.24-4.09,3.13-1.44.9-2.91,1.68-4.48,2.3l.4-.58c-.12,1.83-.38,3.67-.98,5.43-.59,1.76-1.34,3.47-2.29,5.04-.95,1.58-2.02,3.07-3.2,4.45-1.2,1.37-2.45,2.65-3.86,3.8l.1-.62,1.41,2.14c.38.78.81,1.54,1.13,2.36.63,1.65,1.01,3.46.93,5.33-.12,1.88-.72,3.74-1.69,5.36-.24.41-.52.78-.78,1.18-.3.36-.57.74-.89,1.08-.31.34-.63.68-.97.98-.16.16-.34.3-.52.45-.09.08-.18.14-.27.21l-.14.1s-.04,0-.11.02Z"/>
        <path d="M-24.99,53.84s.09-.14.13-.16l.1-.08.19-.17c.12-.12.25-.23.37-.35.24-.24.47-.49.68-.76.22-.26.41-.54.62-.81.18-.29.37-.57.53-.88.65-1.2,1.02-2.53,1.05-3.85-.01-1.31-.3-2.57-.78-3.73-.25-.57-.57-1.11-.85-1.66l-1.06-1.51-.23-.33.34-.29c.96-.83,1.88-1.8,2.71-2.8.83-1.02,1.6-2.09,2.26-3.22.67-1.13,1.18-2.34,1.58-3.58.41-1.24.57-2.51.64-3.77l.02-.42.37-.15c1.06-.44,2.15-1.03,3.16-1.67,1.02-.66,2-1.38,2.91-2.21.89-.84,1.7-1.78,2.37-2.81.67-1.04,1.11-2.19,1.45-3.36l.2-.7.55.29c.85.46,1.84.8,2.83,1.02,1,.21,2.03.28,3.07.2,1.04-.07,2.08-.34,3.07-.77,1.01-.4,1.93-1.07,2.82-1.76l.34-.27.1.4c.24.99.65,1.96,1.2,2.79.55.83,1.26,1.53,2.11,1.98.84.44,1.81.68,2.81.57.5.02.99-.16,1.49-.24.49-.14.98-.35,1.47-.52l.29-.1-.05.32c-.24,1.42-.17,2.9.14,4.25.31,1.37.88,2.63,1.65,3.72.81,1.05,1.78,1.95,2.88,2.64.53.37,1.14.62,1.71.94l1.82.7.52.2-.47.44c-1.09,1.02-1.9,2.51-2.37,4-.46,1.52-.62,3.1-.54,4.66.08,1.57.32,3.11.73,4.57.42,1.43,1.04,2.86,1.85,3.91l.53.67-.82.34c-.69.29-1.47.78-2.15,1.3-.69.53-1.35,1.13-1.96,1.79-1.24,1.3-2.28,2.81-3.17,4.41-.88,1.61-1.73,3.33-2.55,5-.81,1.67-1.66,3.4-2.31,5.06l-.25.63-.57-.14c-.69-.17-1.51-.22-2.29-.16-.78.07-1.57.26-2.3.59-.74.32-1.44.78-2.04,1.37-.63.56-1.13,1.28-1.6,2.01l-.46.7-.51-.52c-.61-.62-1.38-1.19-2.16-1.64-.79-.46-1.64-.8-2.52-1-.88-.22-1.81-.24-2.72-.12-.93.09-1.83.46-2.71.86l-.55.25-.14-.57c-.2-.81-.56-1.67-1.01-2.39-.45-.74-1.01-1.39-1.67-1.91-.65-.52-1.38-.95-2.19-1.19-.79-.29-1.65-.37-2.52-.41l-.3-.02-.03-.3c-.13-1.18-.37-2.37-.7-3.5-.33-1.13-.77-2.22-1.37-3.18-.6-.95-1.36-1.81-2.35-2.28-.51-.18-1.03-.39-1.59-.38l-.42-.03c-.14,0-.3.04-.46.05l-.89.09ZM-24.88,53.78c.6-.12,1.07-.36,1.68-.28.59-.04,1.15.14,1.7.31,1.08.44,1.93,1.3,2.6,2.26.68.97,1.19,2.07,1.56,3.23.38,1.16.67,2.34.85,3.6l-.33-.31c.93.01,1.86.07,2.74.34.9.23,1.73.68,2.47,1.23.75.56,1.39,1.27,1.9,2.08.52.81.92,1.67,1.19,2.7l-.69-.32c.98-.47,1.99-.91,3.04-1.04,1.04-.17,2.1-.16,3.09.06,1,.2,1.95.56,2.83,1.05.89.49,1.68,1.07,2.44,1.83l-.97.18c.54-.84,1.12-1.68,1.86-2.35.71-.7,1.55-1.26,2.43-1.64.88-.39,1.8-.63,2.7-.71.92-.07,1.78-.04,2.7.19l-.82.49c.73-1.86,1.53-3.53,2.38-5.24.86-1.7,1.7-3.36,2.65-5.05.97-1.68,2.09-3.28,3.44-4.66.66-.7,1.38-1.34,2.15-1.91.78-.57,1.54-1.07,2.49-1.45l-.3,1.01c-1.01-1.32-1.56-2.81-2-4.37-.41-1.56-.62-3.19-.68-4.84-.07-1.66.17-3.38.71-5.02.58-1.63,1.44-3.17,2.77-4.35l.05.64-1.86-.78c-.58-.35-1.2-.62-1.74-1.02-1.12-.76-2.1-1.73-2.92-2.85-1.58-2.29-2.31-5.32-1.78-8.35l.24.22c-.51.18-1.01.39-1.52.54-.52.09-1.04.29-1.56.28-1.05.12-2.1-.11-3.02-.57-.92-.47-1.69-1.21-2.28-2.08-.59-.88-1.06-1.84-1.35-2.93l.44.13c-.91.77-1.87,1.51-2.94,1.97-1.05.5-2.17.83-3.29.94-1.11.13-2.23.09-3.3-.1-1.08-.2-2.1-.5-3.12-1l.74-.4c-.33,1.32-.84,2.61-1.57,3.77-.73,1.15-1.6,2.18-2.56,3.1-.97.89-2,1.7-3.08,2.37-1.09.68-2.19,1.26-3.39,1.73l.4-.58c-.09,1.38-.29,2.78-.74,4.11-.45,1.33-1.01,2.62-1.74,3.81-.72,1.19-1.52,2.32-2.42,3.35-.9,1.03-1.85,1.99-2.92,2.85l.1-.62,1.06,1.62c.29.59.6,1.17.85,1.78.47,1.25.76,2.62.69,4.04-.09,1.42-.56,2.83-1.29,4.05-.18.31-.39.59-.59.88-.23.27-.43.56-.68.81-.24.26-.48.5-.74.73-.12.12-.26.22-.39.33l-.2.16-.1.08s-.02-.01-.08,0Z"/>
        <path d="M-15.83,49.76s.07-.13.09-.13l.06-.05.12-.11c.08-.08.16-.15.23-.23.15-.16.29-.32.43-.49.27-.34.51-.7.72-1.09.4-.77.63-1.61.63-2.43-.02-.82-.21-1.61-.52-2.34-.16-.36-.37-.7-.55-1.04l-.68-.95-.24-.33.34-.3c.6-.52,1.18-1.15,1.7-1.79.52-.65,1.01-1.33,1.42-2.05.42-.72.74-1.48.98-2.26.25-.78.35-1.57.4-2.36l.03-.43.38-.16c.66-.27,1.35-.65,1.99-1.06.64-.42,1.26-.88,1.83-1.4.56-.53,1.06-1.12,1.48-1.76.42-.64.7-1.35.92-2.08l.21-.7.54.3c.52.29,1.15.52,1.77.66.63.14,1.28.19,1.93.15.65-.04,1.31-.2,1.94-.46.64-.24,1.22-.66,1.79-1.09l.35-.27.09.4c.29,1.25.99,2.46,2.06,3.04.53.28,1.14.43,1.77.36.31.01.63-.1.95-.15.31-.09.62-.22.93-.33l.29-.11-.05.32c-.15.89-.1,1.84.1,2.7.2.87.56,1.66,1.05,2.35.52.66,1.14,1.23,1.84,1.66.34.23.73.39,1.09.58l1.16.43.52.19-.46.44c-.66.63-1.17,1.57-1.45,2.51-.28.95-.37,1.95-.31,2.92.06,1,.21,1.97.48,2.88.26.89.67,1.81,1.16,2.43l.52.66-.82.36c-.86.38-1.8,1.13-2.55,1.94-.77.82-1.43,1.78-1.99,2.79-.56,1.02-1.1,2.13-1.62,3.2-.51,1.07-1.06,2.19-1.46,3.22l-.25.64-.59-.14c-.4-.1-.92-.13-1.39-.09-.48.04-.96.16-1.4.35-.45.19-.87.46-1.24.82-.38.34-.69.78-.99,1.22l-.47.71-.51-.53c-.36-.38-.85-.74-1.34-1.02-.49-.29-1.02-.5-1.56-.63-.55-.14-1.12-.16-1.68-.09-.57.05-1.13.28-1.68.52l-.55.24-.13-.57c-.11-.48-.34-1.03-.61-1.48-.28-.46-.62-.87-1.03-1.2-.4-.33-.85-.61-1.35-.76-.49-.19-1.03-.24-1.58-.28l-.3-.02-.03-.29c-.16-1.5-.54-3.02-1.27-4.26-.37-.61-.85-1.15-1.47-1.46-.32-.12-.64-.25-1-.26-.17-.03-.35-.04-.57,0l-.58.04ZM-15.72,49.71c.4-.09.65-.27,1.06-.22.39-.03.75.08,1.11.18.71.28,1.27.83,1.72,1.45.45.63.79,1.34,1.04,2.09.25.75.45,1.51.57,2.33l-.33-.31c.61,0,1.22.03,1.8.21.59.15,1.14.43,1.64.8.5.37.92.84,1.26,1.36.35.54.61,1.09.8,1.79l-.69-.32c.64-.32,1.32-.61,2.01-.7.69-.11,1.39-.11,2.05.03.66.13,1.29.37,1.87.68.59.32,1.1.69,1.62,1.2l-.98.18c.35-.56.74-1.12,1.24-1.58.48-.47,1.04-.85,1.63-1.12.59-.27,1.21-.43,1.81-.48.62-.04,1.18-.02,1.82.13l-.84.5c.48-1.23,1-2.29,1.55-3.4.56-1.1,1.09-2.16,1.72-3.26.63-1.09,1.37-2.14,2.25-3.04.89-.91,1.84-1.69,3.07-2.21l-.3,1.01c-.69-.9-1.02-1.86-1.31-2.89-.26-1.02-.4-2.09-.43-3.16-.04-1.09.12-2.22.49-3.29.4-1.07.96-2.07,1.85-2.86l.05.64-1.2-.52c-.37-.23-.77-.41-1.12-.67-.72-.5-1.36-1.14-1.88-1.87-1.02-1.49-1.49-3.46-1.14-5.43l.24.22c-.33.11-.65.25-.99.35-.34.06-.67.18-1.02.18-.69.08-1.37-.08-1.97-.37-.6-.3-1.11-.78-1.5-1.34-.39-.57-.7-1.18-.9-1.9l.44.13c-.59.5-1.21,1-1.91,1.31-.69.34-1.42.56-2.15.64-.73.09-1.46.07-2.16-.04-.71-.12-1.37-.31-2.05-.64l.74-.4c-.21.88-.55,1.73-1.02,2.5-.48.76-1.05,1.44-1.68,2.04-.64.58-1.31,1.11-2.02,1.55-.71.44-1.42.82-2.21,1.13l.41-.59c-.06.91-.19,1.83-.49,2.71-.3.87-.68,1.72-1.15,2.49-.47.77-1,1.51-1.59,2.17-.59.67-1.21,1.28-1.91,1.84l.1-.62.68,1.06c.18.39.39.76.54,1.17.3.82.48,1.72.43,2.65-.07.93-.39,1.85-.87,2.64-.24.39-.52.76-.83,1.09-.16.16-.32.32-.49.46-.08.08-.17.14-.26.21l-.13.1-.07.05s0-.03-.04-.04Z"/>
      </g>
    </g>
  </g>
</svg>