<?xml version="1.0" encoding="UTF-8"?>
<svg id="Layer_2" data-name="Layer 2" xmlns="http://www.w3.org/2000/svg" xmlns:xlink="http://www.w3.org/1999/xlink" viewBox="0 0 72.88 60.18">
  <defs>
    <style>
      .cls-1 {
        fill: none;
      }

      .cls-2 {
        clip-path: url(#clippath);
      }
    </style>
    <clipPath id="clippath">
      <path class="cls-1" d="M47.78,5.04l25.1,53.41-65.26,1.73S1.42,48.44,1.11,42.73c-.31-5.71-2.32-19.6-.04-25.03C3.35,12.26,5.48,3.5,15.34,1.87,25.2.25,36.61,0,36.61,0"/>
    </clipPath>
  </defs>
  <g id="Layer_1-2" data-name="Layer 1">
    <g class="cls-2">
      <g>
        <path d="M35.96,5.04c1.41,3.41,2.69,6.85,3.91,10.31,1.21,3.46,2.39,6.93,3.36,10.45,1,3.51,1.98,7.03,3.22,10.48,1.17,3.47,2.53,6.89,3.75,10.35v.03s.02.05.02.05c.46,2.71.85,5.42,1.28,8.13.43,2.71.79,5.43,1.13,8.15.34,2.72.63,5.44.93,8.17.27,2.73.54,5.45.72,8.19h-.13c-.58-2.68-1.07-5.38-1.56-8.09-.46-2.71-.92-5.41-1.34-8.12-.42-2.71-.81-5.43-1.14-8.15-.33-2.72-.7-5.44-.99-8.16l.02.08c-1.07-3.49-2-7.02-3.13-10.5-1.06-3.5-2.38-6.93-3.67-10.37-1.33-3.43-2.44-6.91-3.53-10.4-1.07-3.49-2.09-7-2.97-10.54l.13-.03Z"/>
        <path d="M84.5,11.7c-2.83,2.75-5.76,5.41-8.7,8.06-2.96,2.63-5.93,5.26-9.03,7.77-3.09,2.52-6.24,4.98-9.26,7.56-1.51,1.29-2.99,2.61-4.48,3.91l-4.39,3.99-.03.03-.06.03c-3.35,1.73-6.73,3.41-10.12,5.08-3.38,1.68-6.77,3.35-10.2,4.95-3.42,1.62-6.87,3.18-10.32,4.76-3.46,1.55-6.93,3.09-10.44,4.56l-.07-.1c3.3-1.8,6.65-3.53,10.01-5.26,3.37-1.69,6.73-3.41,10.13-5.06,3.39-1.66,6.82-3.27,10.25-4.86,3.43-1.6,6.86-3.2,10.33-4.74l-.09.06,4.64-3.77c1.52-1.28,3.05-2.55,4.55-3.85,3-2.6,5.87-5.31,8.8-7.97,2.92-2.67,5.98-5.22,9.03-7.76,3.07-2.53,6.17-5.05,9.36-7.47l.1.09Z"/>
        <path d="M90.73,46.35c-3.56-.08-7.1-.28-10.64-.49-3.54-.23-7.08-.49-10.6-.85-3.52-.38-7.04-.84-10.57-1.2-3.53-.34-7.07-.57-10.61-.77h-.03s-.05-.02-.05-.02c-3.45-.93-6.89-1.89-10.32-2.9-3.42-1-6.85-1.99-10.26-3.05-3.4-1.06-6.78-2.17-10.16-3.28-3.37-1.13-6.74-2.28-10.07-3.51l.04-.11c3.48.85,6.93,1.78,10.38,2.74,3.44.97,6.87,1.94,10.29,2.96,3.41,1.03,6.8,2.12,10.2,3.2,3.39,1.08,6.77,2.2,10.14,3.35l-.08-.02c3.52.4,7.05.76,10.58,1.01,3.54.24,7.09.37,10.63.59,3.54.23,7.07.57,10.59.93,3.52.38,7.05.78,10.55,1.29v.12Z"/>
        <path d="M14.64,12.3c3,2.37,5.9,4.83,8.78,7.31,2.86,2.49,5.72,4.99,8.43,7.6,2.73,2.61,5.39,5.26,8.21,7.79,2.82,2.52,5.71,4.99,8.62,7.44l-.03-.02c2.77,1.97,5.51,3.98,8.23,6,2.73,2.01,5.46,4.03,8.13,6.1,2.69,2.06,5.32,4.17,7.97,6.26,2.62,2.12,5.25,4.24,7.8,6.43l-.09.09c-2.84-1.9-5.62-3.87-8.39-5.84-2.74-2-5.51-3.97-8.22-6-2.73-2.02-5.4-4.09-8.07-6.16-2.67-2.07-5.34-4.15-7.96-6.27l-.03-.02h0c-2.71-2.62-5.45-5.22-8.25-7.76-2.81-2.53-5.77-4.94-8.67-7.4-2.91-2.44-5.68-5.01-8.45-7.59-2.75-2.59-5.48-5.19-8.1-7.88l.1-.08Z"/>
        <path d="M91.8,30.29c-3.49,1.21-7.02,2.3-10.56,3.38-3.55,1.06-7.1,2.09-10.69,3.02-3.6.91-7.23,1.74-10.81,2.7-3.58.97-7.12,2.03-10.65,3.13h-.03s-.06.02-.06.02c-3.63.38-7.27.72-10.91,1.02-3.64.31-7.28.62-10.93.87-3.65.25-7.3.43-10.95.63-3.65.17-7.31.32-10.97.39v-.12c3.61-.46,7.25-.84,10.88-1.2,3.64-.34,7.27-.68,10.92-.97,3.64-.29,7.29-.51,10.94-.73,3.65-.23,7.3-.42,10.95-.57h-.09c3.61-.88,7.2-1.81,10.76-2.83,3.56-1.03,7.06-2.19,10.6-3.28,3.54-1.07,7.12-2.03,10.71-2.96,3.6-.92,7.2-1.82,10.84-2.61l.04.11Z"/>
        <path d="M60.13,6.89c-.73,3.09-1.59,6.14-2.45,9.19-.89,3.05-1.81,6.08-2.84,9.1l-3.22,9c-.51,1.51-1,3.02-1.45,4.54-.48,1.52-.91,3.04-1.34,4.57l-.02.06-.06.06c-2.37,2.56-4.75,5.12-7.19,7.64-2.44,2.52-4.85,5.05-7.33,7.53-2.48,2.48-5.01,4.93-7.55,7.37-2.55,2.43-5.12,4.84-7.76,7.2l-.1-.08c2.3-2.62,4.66-5.19,7.05-7.75,2.4-2.54,4.81-5.08,7.26-7.58,2.46-2.5,4.98-4.95,7.48-7.42,2.5-2.47,5.06-4.89,7.62-7.31l-.07.12c.54-1.5,1.07-3,1.55-4.52.51-1.51.99-3.02,1.44-4.54l2.56-9.16c.9-3.04,1.91-6.06,2.94-9.07,1.06-3,2.13-6.01,3.33-8.98l.13.03Z"/>
        <path d="M19.79,17.03c.06,0,.19.03.24.06l.15.07c.1.05.2.1.31.14.21.08.41.18.63.25.43.16.86.29,1.3.41.44.13.89.19,1.34.29.46.05.91.13,1.37.15,1.83.11,3.67-.2,5.29-.91,1.6-.76,2.96-1.83,4.1-3.07.56-.63,1.03-1.32,1.53-1.98l1.24-2.15.2-.36.4.18c1.56.7,3.25,1.26,4.95,1.7,1.71.43,3.45.75,5.21.91,1.76.17,3.53.1,5.26-.12,1.74-.21,3.39-.75,4.98-1.39l.39-.16.3.27c1.15,1.05,2.48,2.02,3.85,2.89,1.38.86,2.83,1.64,4.36,2.26,1.54.6,3.15,1.04,4.8,1.26,1.66.21,3.32.1,4.95-.18l.71-.12-.03.62c-.07,1.32.1,2.71.41,4.04.32,1.33.84,2.63,1.54,3.85.69,1.22,1.62,2.33,2.72,3.29,1.07,1,2.41,1.72,3.77,2.4l.39.19-.32.26c-1.07.86-2,1.92-2.69,3.07-.69,1.15-1.13,2.41-1.19,3.7-.05,1.28.22,2.6.93,3.75l.23.44c.09.14.2.27.3.41l.62.82c.45.52.98.99,1.47,1.48l.22.22-.31.09c-1.86.53-3.61,1.45-5.08,2.61-1.48,1.16-2.68,2.57-3.57,4.12-.81,1.58-1.36,3.27-1.57,5-.15.86-.1,1.74-.17,2.6.04.87.13,1.74.19,2.61l.04.56-.59-.24c-1.89-.76-4.16-.9-6.26-.63-2.12.31-4.16,1-6,2-1.86,1-3.59,2.17-5.13,3.5-1.5,1.33-2.89,2.89-3.71,4.52l-.39.76-.66-.6c-.78-.7-1.81-1.36-2.84-1.89-1.05-.54-2.16-1-3.31-1.37-2.29-.76-4.73-1.16-7.18-1.34-2.46-.15-5.01-.19-7.5-.24-2.49-.03-5.05-.07-7.45.1l-.67.05-.12-.58c-.19-.96-.61-2-1.13-2.91-.54-.93-1.23-1.78-2.07-2.49-.83-.72-1.8-1.32-2.88-1.72-1.06-.45-2.24-.64-3.41-.8l-.83-.11.25-.69c.41-1.12.65-2.38.75-3.6.1-1.23.02-2.46-.24-3.66-.25-1.2-.75-2.35-1.44-3.41-.65-1.08-1.63-1.97-2.63-2.82l-.46-.39.46-.37c.89-.73,1.72-1.66,2.35-2.63.64-.98,1.11-2.04,1.36-3.15.26-1.1.36-2.24.18-3.36-.03-.57-.22-1.12-.35-1.67-.16-.55-.41-1.08-.61-1.63l-.1-.28.25-.15c1.36-.84,2.65-1.82,3.83-2.87,1.17-1.06,2.23-2.22,3.06-3.49.82-1.28,1.38-2.71,1.38-4.18,0-.73-.16-1.46-.44-2.16-.26-.7-.75-1.32-1.19-2.03ZM19.89,17.11c.28.31.52.49.73.86.23.32.41.67.58,1.01.31.71.51,1.46.55,2.22.07,1.53-.45,3.05-1.25,4.4-.8,1.35-1.85,2.58-3.03,3.69-1.18,1.11-2.45,2.13-3.86,3.04l.14-.43c.23.57.51,1.12.7,1.7.16.59.37,1.17.43,1.78.22,1.2.16,2.44-.09,3.64-.25,1.2-.74,2.36-1.41,3.43-.68,1.08-1.49,2.04-2.54,2.93v-.76c1.11.9,2.19,1.86,2.93,3.04.78,1.15,1.36,2.41,1.65,3.72.31,1.3.42,2.64.34,3.96-.09,1.33-.33,2.61-.81,3.92l-.57-.8c1.3.17,2.61.39,3.83.89,1.23.45,2.35,1.13,3.3,1.96.96.82,1.74,1.77,2.34,2.8.6,1.04,1.04,2.1,1.29,3.3l-.79-.53c2.62-.18,5.1-.15,7.65-.12,2.54.07,5.03.12,7.59.3,2.56.2,5.11.64,7.53,1.46,1.21.39,2.38.89,3.5,1.48,1.12.6,2.16,1.24,3.13,2.13l-1.05.16c.99-1.93,2.46-3.43,4.08-4.84,1.64-1.37,3.47-2.56,5.41-3.55,1.95-1.01,4.13-1.72,6.39-2.01,2.27-.23,4.61-.08,6.74.82l-.55.32c-.04-.89-.1-1.78-.13-2.68.08-.89.06-1.79.23-2.67.26-1.78.87-3.5,1.74-5.13,1.84-3.2,5.07-5.79,9-6.88l-.09.31c-.5-.51-1.04-.99-1.51-1.52l-.65-.84c-.1-.14-.22-.28-.32-.42l-.25-.46c-.74-1.19-1.06-2.58-1.01-3.93.04-1.36.5-2.7,1.2-3.9.72-1.2,1.61-2.31,2.75-3.26l.07.45c-1.43-.67-2.86-1.4-4.02-2.42-1.19-.98-2.21-2.13-2.97-3.4-.78-1.26-1.36-2.62-1.73-4.01-.37-1.4-.58-2.81-.55-4.29l.68.5c-1.76.35-3.58.46-5.37.25-1.78-.23-3.5-.68-5.13-1.31-1.61-.65-3.15-1.44-4.58-2.35-1.43-.92-2.76-1.91-4-3.07l.69.11c-1.7.67-3.48,1.23-5.33,1.44-1.84.22-3.71.27-5.54.08-1.83-.18-3.64-.51-5.39-1-1.75-.49-3.44-1.09-5.08-1.87l.61-.17-1.33,2.19c-.55.68-1.05,1.39-1.65,2.03-1.23,1.27-2.69,2.39-4.42,3.12-1.75.7-3.69.95-5.57.77-.47-.04-.93-.13-1.4-.2-.45-.12-.91-.2-1.35-.35-.44-.13-.88-.28-1.3-.46-.22-.08-.42-.18-.63-.27-.11-.05-.21-.1-.31-.15l-.15-.08c-.06-.02-.02-.04-.06-.09Z"/>
        <path d="M26.89,23.14s.17.02.2.04l.12.05.23.1c.16.06.31.13.47.18.32.12.65.21.98.29.33.09.67.14,1,.21.34.03.68.09,1.02.11,1.36.08,2.73-.16,3.93-.69,1.18-.57,2.19-1.37,3.04-2.29.41-.47.76-.99,1.13-1.48l.91-1.61.2-.35.41.18c1.16.51,2.42.93,3.69,1.25,1.27.32,2.57.56,3.88.67,1.31.13,2.63.07,3.91-.09,1.29-.16,2.51-.56,3.69-1.03l.39-.16.3.27c.85.77,1.85,1.5,2.86,2.14,1.03.64,2.1,1.22,3.24,1.68,1.14.45,2.34.77,3.55.94,1.22.16,2.45.07,3.66-.13l.72-.12-.03.62c-.05.97.06,2.01.29,3,.23.99.61,1.96,1.13,2.86.51.91,1.19,1.74,2.01,2.45.79.75,1.79,1.29,2.8,1.79l.39.2-.32.26c-.79.64-1.5,1.42-2.01,2.27-.52.85-.85,1.79-.89,2.75-.04.95.16,1.93.68,2.79.19.46.57.83.85,1.24.34.39.73.74,1.1,1.1l.22.22-.31.09c-1.38.39-2.69,1.09-3.79,1.95-1.1.86-2,1.92-2.66,3.08-.6,1.18-1,2.44-1.16,3.73-.11.64-.07,1.3-.12,1.94l.15,1.95.04.56-.6-.24c-1.39-.55-3.08-.65-4.63-.44-1.57.23-3.07.76-4.44,1.5-1.39.74-2.67,1.62-3.82,2.61-1.11.99-2.15,2.16-2.74,3.34l-.38.76-.66-.6c-.56-.5-1.33-.99-2.1-1.39-.78-.4-1.6-.74-2.46-1.01-1.7-.56-3.52-.86-5.34-.99-1.83-.11-3.75-.14-5.61-.17-1.86-.02-3.79-.05-5.56.07l-.67.05-.12-.58c-.14-.69-.44-1.46-.83-2.14-.39-.68-.91-1.3-1.52-1.83-.61-.53-1.32-.97-2.11-1.26-.77-.33-1.64-.47-2.5-.59l-.83-.11.25-.69c.3-.82.48-1.76.56-2.65.08-.91.02-1.82-.17-2.71-.18-.89-.55-1.74-1.06-2.51-.48-.8-1.2-1.45-1.94-2.08l-.46-.39.46-.37c.65-.53,1.27-1.22,1.73-1.93.48-.72.82-1.51,1.01-2.32.19-.81.27-1.65.15-2.49-.08-.84-.37-1.65-.7-2.45l-.11-.27.25-.16c1.01-.62,1.98-1.35,2.86-2.13.88-.78,1.67-1.65,2.29-2.6.61-.95,1.05-2,1.06-3.1-.05-.54-.09-1.09-.34-1.6l-.15-.39c-.06-.13-.16-.26-.24-.39l-.47-.76ZM26.99,23.22c.36.49.78.81.97,1.39.29.52.36,1.1.45,1.67.06,1.16-.35,2.3-.93,3.32-.59,1.03-1.37,1.96-2.25,2.79-.89.84-1.83,1.61-2.89,2.3l.14-.43c.39.84.74,1.71.86,2.63.17.91.13,1.85-.06,2.76-.19.91-.56,1.8-1.07,2.61-.51.82-1.12,1.55-1.93,2.23v-.76c.84.68,1.67,1.41,2.24,2.31.6.87,1.04,1.83,1.26,2.82.24.99.32,2,.26,3.01-.07,1.01-.25,1.97-.61,2.98l-.57-.8c.99.13,1.99.29,2.92.68.94.34,1.8.87,2.53,1.5.73.62,1.33,1.36,1.79,2.14.46.8.79,1.6.98,2.52l-.79-.53c1.99-.14,3.84-.12,5.76-.09,1.91.05,3.77.1,5.7.23,1.93.16,3.86.49,5.68,1.11.92.3,1.8.68,2.65,1.12.85.46,1.63.94,2.38,1.63l-1.05.16c.76-1.48,1.87-2.61,3.09-3.67,1.24-1.04,2.62-1.93,4.08-2.68,1.47-.77,3.13-1.29,4.85-1.5,1.72-.17,3.49-.05,5.12.65l-.55.32-.09-2.01c.06-.67.05-1.35.18-2.01.2-1.34.67-2.64,1.33-3.86,1.39-2.41,3.82-4.36,6.79-5.18l-.09.31c-.38-.38-.78-.75-1.14-1.14-.31-.43-.7-.82-.92-1.3-.56-.9-.8-1.95-.77-2.97.03-1.03.37-2.04.9-2.95.55-.91,1.21-1.74,2.07-2.47l.07.45c-1.08-.5-2.16-1.05-3.04-1.82-.9-.74-1.68-1.61-2.26-2.57-.59-.95-1.03-1.98-1.32-3.03-.28-1.06-.45-2.12-.43-3.25l.68.5c-1.34.27-2.72.35-4.08.2-1.35-.17-2.66-.51-3.89-.99-1.22-.49-2.39-1.08-3.46-1.78-1.08-.7-2.08-1.44-3.02-2.32l.69.11c-1.29.51-2.64.93-4.04,1.08-1.39.16-2.8.2-4.19.06-1.38-.14-2.75-.39-4.06-.76-1.32-.38-2.59-.83-3.83-1.42l.61-.17-1.01,1.65c-.41.51-.8,1.04-1.25,1.53-.93.96-2.04,1.8-3.36,2.35-1.32.52-2.8.7-4.21.56-.35-.03-.7-.1-1.05-.15-.34-.09-.69-.15-1.02-.27-.33-.1-.66-.22-.98-.36-.16-.06-.31-.14-.47-.21l-.23-.12-.11-.06s0-.03-.03-.07Z"/>
        <path d="M34.49,29.68s.14,0,.16.02l.07.03.15.06c.1.04.2.08.31.11.21.07.42.13.63.18.42.1.86.17,1.29.19.87.04,1.72-.12,2.47-.47.73-.37,1.37-.87,1.89-1.46.26-.3.47-.63.71-.94l.57-1.02.2-.35.41.18c.73.32,1.54.58,2.35.77.81.2,1.63.34,2.46.41.83.07,1.65.03,2.46-.08.81-.1,1.57-.35,2.3-.65l.4-.16.3.28c.53.48,1.16.95,1.81,1.35.65.4,1.33.77,2.05,1.06.72.28,1.46.48,2.22.59.76.11,1.52.06,2.27-.06l.72-.11-.04.61c-.04.59.02,1.26.16,1.88.14.63.37,1.24.69,1.81.31.58.74,1.1,1.25,1.55.49.47,1.12.82,1.75,1.15l.39.2-.32.25c-1,.8-1.8,1.95-1.87,3.16-.03.6.1,1.22.43,1.76.12.29.36.53.54.79.21.25.47.47.7.7l.22.22-.31.09c-.87.25-1.71.69-2.4,1.24-.7.55-1.26,1.22-1.68,1.96-.37.75-.62,1.55-.72,2.37-.06.41-.04.82-.06,1.23l.1,1.24.05.55-.6-.23c-.85-.33-1.92-.38-2.89-.24-.98.15-1.92.5-2.78.97-.88.48-1.69,1.03-2.4,1.66-.7.62-1.35,1.38-1.7,2.09l-.37.75-.67-.58c-.71-.62-1.79-1.14-2.84-1.47-1.07-.35-2.22-.53-3.37-.61-1.16-.07-2.4-.08-3.59-.1-1.19,0-2.44-.02-3.54.05l-.68.05-.12-.59c-.08-.4-.27-.89-.51-1.29-.24-.42-.55-.8-.92-1.12-.37-.32-.79-.59-1.27-.77-.47-.2-1-.29-1.53-.37l-.84-.12.26-.69c.18-.49.3-1.09.36-1.64.05-.57.02-1.14-.09-1.68-.11-.55-.33-1.08-.64-1.56-.29-.5-.74-.9-1.19-1.3l-.46-.4.46-.36c.39-.31.79-.75,1.08-1.19.3-.45.52-.94.64-1.44.13-.5.18-1.03.11-1.55-.04-.52-.22-1.04-.42-1.54l-.11-.28.25-.15c1.28-.79,2.5-1.78,3.31-2.97.39-.6.68-1.26.7-1.95-.03-.34-.05-.69-.2-1.02-.05-.17-.12-.33-.24-.51l-.28-.51ZM34.59,29.76c.25.32.52.48.65.87.2.34.25.71.31,1.08.05.76-.21,1.5-.58,2.17-.37.67-.88,1.28-1.44,1.83-.57.55-1.17,1.05-1.86,1.51l.14-.43c.26.55.49,1.12.58,1.72.12.6.1,1.22-.02,1.82-.12.6-.36,1.19-.69,1.73-.34.54-.73,1.02-1.27,1.49v-.76c.56.45,1.11.93,1.49,1.52.4.58.7,1.21.85,1.87.16.66.22,1.32.19,1.98-.04.67-.15,1.29-.39,1.98l-.58-.81c.66.08,1.33.19,1.96.45.63.23,1.22.58,1.71,1,.49.42.9.91,1.21,1.44.3.54.52,1.06.65,1.7l-.8-.54c1.32-.09,2.5-.07,3.73-.05,1.23.04,2.42.07,3.68.16,1.26.11,2.52.33,3.71.74,1.2.42,2.32.94,3.31,1.83l-1.05.16c.52-1.01,1.25-1.72,2.05-2.42.81-.67,1.72-1.25,2.67-1.73.97-.5,2.06-.83,3.19-.97,1.14-.1,2.28-.02,3.37.45l-.55.32-.05-1.31c.05-.44.04-.87.13-1.3.14-.87.45-1.71.88-2.5.91-1.56,2.49-2.82,4.42-3.36l-.09.31c-.24-.25-.51-.48-.74-.74-.2-.28-.45-.53-.6-.84-.37-.58-.52-1.27-.5-1.94.01-.67.23-1.34.57-1.93.35-.59.77-1.14,1.34-1.62l.07.45c-.71-.32-1.42-.67-2-1.17-.6-.48-1.11-1.04-1.49-1.67-.39-.62-.69-1.29-.88-1.97-.19-.7-.31-1.37-.3-2.13l.68.5c-.88.18-1.8.25-2.7.15-.89-.1-1.75-.33-2.56-.65-.8-.32-1.56-.71-2.26-1.16-.7-.46-1.35-.94-1.97-1.52l.7.12c-.85.34-1.74.61-2.66.71-.92.1-1.84.12-2.74.02-.9-.1-1.79-.26-2.64-.51-.86-.25-1.67-.55-2.48-.94l.61-.17-.67,1.07c-.27.33-.53.68-.83.99-.61.62-1.35,1.17-2.21,1.52-.87.33-1.84.44-2.76.34-.46-.05-.91-.15-1.34-.29-.21-.07-.42-.15-.63-.24-.1-.04-.2-.09-.3-.14l-.15-.08-.07-.04s.03-.01.01-.05Z"/>
      </g>
    </g>
  </g>
</svg>