<?xml version="1.0" encoding="UTF-8"?>
<svg id="Layer_2" data-name="Layer 2" xmlns="http://www.w3.org/2000/svg" viewBox="0 0 16.39 28.24">
  <g id="Layer_1-2" data-name="Layer 1">
    <g>
      <path d="M11.98,2.91c-.55,4.01-2.22,8.09-2.83,11.94.57.94,1.7,1.63,2.64,2.38,1.51,1.11,3.08,2.19,4.6,3.41-2.43-.6-9.14-2.9-9.29-5.83.16-2.43,1.22-4.67,2.11-6.81.79-1.76,1.67-3.47,2.77-5.09h0Z"/>
      <path d="M6.26,0c-.98,4.52-2.28,8.9-3.36,13.37-.39,1.74-.93,3.56-.88,5.24.12.88.96,1.44,1.62,2.12,3.47,2.9,7.49,5.1,11.37,7.51-2.99-.82-5.86-2.02-8.62-3.47-2.11-1.18-4.28-2.36-5.8-4.39-.29-.39-.55-.94-.59-1.45-.11-3.71,1.4-7.14,2.5-10.46C3.58,5.57,4.8,2.73,6.26,0h0Z"/>
    </g>
  </g>
</svg>