<?xml version="1.0" encoding="UTF-8"?>
<svg id="Layer_2" data-name="Layer 2" xmlns="http://www.w3.org/2000/svg" xmlns:xlink="http://www.w3.org/1999/xlink" viewBox="0 0 61.03 18.16">
  <defs>
    <style>
      .cls-1 {
        fill: none;
      }

      .cls-2 {
        clip-path: url(#clippath);
      }
    </style>
    <clipPath id="clippath">
      <polygon class="cls-1" points="0 18.16 61.03 18.16 42.86 0 0 18.16"/>
    </clipPath>
  </defs>
  <g id="Layer_1-2" data-name="Layer 1">
    <g class="cls-2">
      <g>
        <path d="M-215.24,126.44c-.26,0-.52-.1-.73-.26l-11.47-9.12c-.33-.26-.5-.68-.44-1.1s.33-.78.72-.94l15.78-6.65,21.69-71.87c.14-.47.55-.8,1.04-.85L.14,19.2,38.75,2.93c.15-.06.31-.09.47-.09.25,0,.51.08.72.24l15.51,11.62c.15.12.28.27.36.44l55.2,114.58c.18.37.15.81-.07,1.16-.22.34-.6.55-1.01.55,0,0-325.17-4.98-325.17-4.98Z"/>
        <path d="M39.21,4.04l15.51,11.62,55.2,114.58-325.15-4.98-11.47-9.13,16.3-6.87,21.86-72.41L.43,20.38,39.21,4.04M39.21,1.64c-.31,0-.63.06-.93.19L-.15,18.03l-188.6,16.43c-.98.09-1.8.76-2.08,1.69l-21.53,71.33-15.26,6.43c-.78.33-1.33,1.04-1.44,1.88-.12.84.22,1.67.88,2.2l11.47,9.13c.41.33.93.51,1.45.52l325.15,4.98s.02,0,.04,0c.82,0,1.58-.42,2.02-1.11.45-.7.5-1.58.14-2.33L56.88,14.61c-.17-.35-.41-.65-.72-.88l-15.51-11.62c-.42-.32-.93-.48-1.44-.48h0Z"/>
      </g>
    </g>
  </g>
</svg>