<?xml version="1.0" encoding="UTF-8"?>
<svg id="Layer_2" data-name="Layer 2" xmlns="http://www.w3.org/2000/svg" viewBox="0 0 110.32 147.53">
  <g id="Layer_1-2" data-name="Layer 1">
    <g>
      <ellipse cx="47.12" cy="126.61" rx="2.32" ry="2.95"/>
      <ellipse cx="47.12" cy="136.51" rx="1.91" ry="2.42"/>
      <ellipse cx="47.11" cy="145.88" rx="1.3" ry="1.65"/>
      <ellipse cx="54.97" cy="145.88" rx="1.3" ry="1.65"/>
      <ellipse cx="62.62" cy="145.88" rx="1.08" ry="1.37"/>
      <ellipse cx="70.52" cy="145.88" rx=".85" ry="1.08"/>
      <ellipse cx="78.24" cy="145.88" rx=".49" ry=".62"/>
      <ellipse cx="39.29" cy="145.88" rx="1.2" ry="1.53"/>
      <ellipse cx="31.58" cy="145.88" rx="1.01" ry="1.28"/>
      <ellipse cx="23.79" cy="145.88" rx=".66" ry=".84"/>
      <ellipse cx="54.97" cy="136.51" rx="1.91" ry="2.42"/>
      <ellipse cx="62.69" cy="136.51" rx="1.76" ry="2.24"/>
      <ellipse cx="70.53" cy="136.51" rx="1.62" ry="2.05"/>
      <ellipse cx="78.22" cy="136.51" rx="1.24" ry="1.58"/>
      <ellipse cx="86.02" cy="136.51" rx=".7" ry=".89"/>
      <ellipse cx="39.39" cy="136.51" rx="1.91" ry="2.42"/>
      <ellipse cx="31.54" cy="136.35" rx="1.67" ry="2.12"/>
      <ellipse cx="23.97" cy="136.35" rx="1.41" ry="1.78"/>
      <ellipse cx="15.95" cy="136.35" rx="1.01" ry="1.28"/>
      <ellipse cx="8.08" cy="136.35" rx=".44" ry=".56"/>
      <ellipse cx="39.39" cy="126.61" rx="2.32" ry="2.95"/>
      <ellipse cx="31.58" cy="126.61" rx="2.11" ry="2.67"/>
      <ellipse cx="23.78" cy="126.61" rx="1.85" ry="2.35"/>
      <ellipse cx="16.03" cy="126.61" rx="1.59" ry="2.02"/>
      <ellipse cx="8.06" cy="126.61" rx=".98" ry="1.25"/>
      <ellipse cx=".46" cy="126.61" rx=".46" ry=".59"/>
      <ellipse cx="54.97" cy="126.61" rx="2.32" ry="2.95"/>
      <ellipse cx="62.79" cy="126.61" rx="2.11" ry="2.67"/>
      <ellipse cx="70.58" cy="126.61" rx="1.85" ry="2.35"/>
      <ellipse cx="78.34" cy="126.61" rx="1.59" ry="2.02"/>
      <ellipse cx="86.3" cy="126.61" rx=".98" ry="1.25"/>
      <ellipse cx="93.9" cy="117.07" rx="1.36" ry="1.73"/>
      <ellipse cx="101.65" cy="117.07" rx=".74" ry=".95"/>
      <ellipse cx="101.65" cy="107.28" rx="1.1" ry="1.39"/>
      <ellipse cx="101.65" cy="97.38" rx="1.34" ry="1.7"/>
      <ellipse cx="93.74" cy="97.38" rx="1.96" ry="2.48"/>
      <ellipse cx="101.65" cy="87.73" rx="1.7" ry="2.16"/>
      <ellipse cx="93.91" cy="87.73" rx="2.16" ry="2.74"/>
      <ellipse cx="101.65" cy="78.29" rx="1.7" ry="2.16"/>
      <ellipse cx="93.91" cy="78.29" rx="2.16" ry="2.74"/>
      <ellipse cx="101.65" cy="68.4" rx="1.51" ry="1.92"/>
      <ellipse cx="93.74" cy="68.4" rx="2.32" ry="2.95"/>
      <ellipse cx="101.65" cy="58.74" rx="1.46" ry="1.85"/>
      <ellipse cx="93.93" cy="58.74" rx="2.14" ry="2.71"/>
      <ellipse cx="86.03" cy="58.74" rx="2.51" ry="3.19"/>
      <ellipse cx="86.32" cy="48.92" rx="2.23" ry="2.83"/>
      <ellipse cx="86.08" cy="39.38" rx="1.99" ry="2.53"/>
      <ellipse cx="86.13" cy="29.56" rx="1.54" ry="1.96"/>
      <ellipse cx="86.15" cy="20.07" rx="1.17" ry="1.48"/>
      <ellipse cx="78.45" cy="20.07" rx="1.58" ry="2.01"/>
      <ellipse cx="78.31" cy="29.56" rx="1.73" ry="2.2"/>
      <ellipse cx="77.84" cy="39.7" rx="2.2" ry="2.79"/>
      <ellipse cx="77.59" cy="49.4" rx="2.45" ry="3.11"/>
      <ellipse cx="86.15" cy="10.07" rx=".52" ry=".66"/>
      <ellipse cx="78.14" cy="10.07" rx=".83" ry="1.06"/>
      <ellipse cx="69.19" cy="17.37" rx="1.78" ry="2.26"/>
      <ellipse cx="69.02" cy="28.05" rx="1.95" ry="2.47"/>
      <ellipse cx="68.5" cy="39.45" rx="2.47" ry="3.13"/>
      <ellipse cx="68.21" cy="50.36" rx="2.75" ry="3.49"/>
      <ellipse cx="68.83" cy="6.12" rx=".94" ry="1.19"/>
      <ellipse cx="60.82" cy="13.69" rx="1.96" ry="2.49"/>
      <ellipse cx="60.64" cy="25.45" rx="2.14" ry="2.72"/>
      <ellipse cx="60.06" cy="37.99" rx="2.72" ry="3.45"/>
      <ellipse cx="59.75" cy="50.01" rx="3.03" ry="3.84"/>
      <ellipse cx="60.43" cy="1.31" rx="1.03" ry="1.31"/>
      <ellipse cx="101.65" cy="48.92" rx="1.25" ry="1.59"/>
      <ellipse cx="93.73" cy="48.92" rx="1.94" ry="2.46"/>
      <ellipse cx="101.65" cy="39.38" rx=".85" ry="1.08"/>
      <ellipse cx="93.96" cy="39.38" rx="1.48" ry="1.88"/>
      <ellipse cx="101.65" cy="29.56" rx=".38" ry=".48"/>
      <ellipse cx="93.83" cy="29.56" rx="1" ry="1.27"/>
      <ellipse cx="93.83" cy="20.07" rx=".5" ry=".64"/>
      <ellipse cx="109.45" cy="48.92" rx=".38" ry=".48"/>
      <ellipse cx="109.45" cy="58.76" rx=".61" ry=".77"/>
      <ellipse cx="109.45" cy="68.33" rx=".87" ry="1.11"/>
      <ellipse cx="109.45" cy="78.14" rx=".87" ry="1.11"/>
      <ellipse cx="109.45" cy="87.73" rx=".87" ry="1.11"/>
      <ellipse cx="109.45" cy="97.61" rx=".59" ry=".75"/>
      <ellipse cx="93.9" cy="126.61" rx=".46" ry=".59"/>
    </g>
  </g>
</svg>