<?xml version="1.0" encoding="UTF-8"?>
<svg id="Layer_2" data-name="Layer 2" xmlns="http://www.w3.org/2000/svg" viewBox="0 0 126.97 128.17">
  <g id="Layer_1-2" data-name="Layer 1">
    <g>
      <circle cx="108.09" cy="1.79" r=".77"/>
      <circle cx="99" cy="1.79" r=".77"/>
      <ellipse cx="90.28" cy="1.68" rx=".77" ry="1.14"/>
      <ellipse cx="81.23" cy="1.68" rx="1.14" ry="1.68"/>
      <ellipse cx="71.89" cy="1.71" rx="1.14" ry="1.28"/>
      <ellipse cx="62.69" cy="1.71" rx=".81" ry=".91"/>
      <ellipse cx="44.84" cy="12.8" rx=".81" ry=".91"/>
      <ellipse cx="35.78" cy="24.33" rx="1.19" ry="1.33"/>
      <ellipse cx="44.71" cy="24.33" rx="1.69" ry="1.9"/>
      <ellipse cx="53.92" cy="24.33" rx="2.1" ry="2.36"/>
      <ellipse cx="62.82" cy="24.3" rx="2.24" ry="2.84"/>
      <ellipse cx="71.96" cy="24.3" rx="2.35" ry="2.98"/>
      <ellipse cx="81.02" cy="24.3" rx="2.35" ry="2.98"/>
      <ellipse cx="90.08" cy="24.3" rx="2.35" ry="2.98"/>
      <ellipse cx="99" cy="23.81" rx="1.96" ry="2.49"/>
      <ellipse cx="53.99" cy="12.8" rx="1.37" ry="1.53"/>
      <ellipse cx="62.95" cy="12.8" rx="1.66" ry="1.87"/>
      <ellipse cx="72.21" cy="12.8" rx="1.87" ry="2.1"/>
      <ellipse cx="81.02" cy="12.8" rx="1.87" ry="2.1"/>
      <ellipse cx="90.09" cy="12.8" rx="1.87" ry="2.1"/>
      <ellipse cx="99" cy="12.8" rx="1.87" ry="2.1"/>
      <ellipse cx="108.21" cy="12.8" rx="1.56" ry="1.75"/>
      <ellipse cx="117.04" cy="12.8" rx="1.09" ry="1.22"/>
      <ellipse cx="126.3" cy="12.8" rx=".67" ry=".76"/>
    </g>
    <g>
      <circle cx="1.79" cy="54.67" r=".77"/>
      <circle cx="1.79" cy="63.77" r=".77"/>
      <ellipse cx="1.68" cy="72.49" rx="1.14" ry=".77"/>
      <ellipse cx="1.68" cy="81.54" rx="1.68" ry="1.14"/>
      <ellipse cx="1.71" cy="90.88" rx="1.28" ry="1.14"/>
      <ellipse cx="1.71" cy="100.08" rx=".91" ry=".81"/>
      <ellipse cx="12.8" cy="117.92" rx=".91" ry=".81"/>
      <ellipse cx="24.33" cy="126.98" rx="1.33" ry="1.19"/>
      <ellipse cx="24.33" cy="118.06" rx="1.9" ry="1.69"/>
      <ellipse cx="24.33" cy="108.85" rx="2.36" ry="2.1"/>
      <ellipse cx="24.3" cy="99.95" rx="2.84" ry="2.24"/>
      <ellipse cx="24.3" cy="90.81" rx="2.98" ry="2.35"/>
      <ellipse cx="24.3" cy="81.75" rx="2.98" ry="2.35"/>
      <ellipse cx="24.3" cy="72.69" rx="2.98" ry="2.35"/>
      <ellipse cx="23.81" cy="63.77" rx="2.49" ry="1.96"/>
      <ellipse cx="12.8" cy="108.77" rx="1.53" ry="1.37"/>
      <ellipse cx="12.8" cy="99.82" rx="1.87" ry="1.66"/>
      <ellipse cx="12.8" cy="90.56" rx="2.1" ry="1.87"/>
      <ellipse cx="12.8" cy="81.75" rx="2.1" ry="1.87"/>
      <ellipse cx="12.8" cy="72.68" rx="2.1" ry="1.87"/>
      <ellipse cx="12.8" cy="63.77" rx="2.1" ry="1.87"/>
      <ellipse cx="12.8" cy="54.56" rx="1.75" ry="1.56"/>
      <ellipse cx="12.8" cy="45.73" rx="1.22" ry="1.09"/>
      <ellipse cx="12.8" cy="36.47" rx=".76" ry=".67"/>
      <ellipse cx="23.81" cy="54.41" rx="2.37" ry="2.11"/>
      <ellipse cx="23.81" cy="44.37" rx="2.37" ry="2.11"/>
      <ellipse cx="23.81" cy="33.97" rx="1.97" ry="1.76"/>
      <ellipse cx="23.81" cy="24.01" rx="1.38" ry="1.23"/>
      <ellipse cx="23.81" cy="13.56" rx=".86" ry=".76"/>
    </g>
  </g>
</svg>