<?xml version="1.0" encoding="UTF-8"?>
<svg xmlns="http://www.w3.org/2000/svg" xmlns:xlink="http://www.w3.org/1999/xlink" viewBox="0 0 121.7 147.53">
  <defs>
    <style>
      .cls-1 {
        fill: url(#linear-gradient-3);
      }

      .cls-2 {
        fill: #fff;
      }

      .cls-2, .cls-3, .cls-4 {
        mix-blend-mode: overlay;
      }

      .cls-5 {
        fill: url(#linear-gradient);
      }

      .cls-6 {
        isolation: isolate;
      }

      .cls-3 {
        fill: url(#linear-gradient-2);
      }

      .cls-4 {
        fill: url(#linear-gradient-4);
      }

      .cls-7 {
        fill: #bd0000;
      }

      .cls-8 {
        fill: red;
      }
    </style>
    <linearGradient id="linear-gradient" x1="683.86" y1="226.98" x2="692.95" y2="226.98" gradientTransform="translate(777.68 -132.06) rotate(176.72) scale(1 -1)" gradientUnits="userSpaceOnUse">
      <stop offset="0" stop-color="#fe5151"/>
      <stop offset="1" stop-color="red"/>
    </linearGradient>
    <linearGradient id="linear-gradient-2" x1="692.52" y1="256" x2="692.6" y2="251.3" gradientTransform="translate(798.03 -113.61) rotate(-179.52) scale(1 -1)" gradientUnits="userSpaceOnUse">
      <stop offset="0" stop-color="#fff" stop-opacity="0"/>
      <stop offset="1" stop-color="#fff"/>
    </linearGradient>
    <linearGradient id="linear-gradient-3" x1="668.63" y1="201.26" x2="674.23" y2="201.26" xlink:href="#linear-gradient"/>
    <linearGradient id="linear-gradient-4" x1="677.28" y1="228.22" x2="677.33" y2="225.33" xlink:href="#linear-gradient-2"/>
  </defs>
  <g class="cls-6">
    <g id="Layer_2" data-name="Layer 2">
      <g id="Layer_1-2" data-name="Layer 1">
        <g>
          <ellipse cx="47.12" cy="126.61" rx="2.32" ry="2.95"/>
          <ellipse cx="47.12" cy="136.51" rx="1.91" ry="2.42"/>
          <ellipse cx="47.11" cy="145.88" rx="1.3" ry="1.65"/>
          <ellipse cx="54.97" cy="145.88" rx="1.3" ry="1.65"/>
          <ellipse cx="62.62" cy="145.88" rx="1.08" ry="1.37"/>
          <ellipse cx="70.52" cy="145.88" rx=".85" ry="1.08"/>
          <ellipse cx="78.24" cy="145.88" rx=".49" ry=".62"/>
          <ellipse cx="39.29" cy="145.88" rx="1.2" ry="1.53"/>
          <ellipse cx="31.58" cy="145.88" rx="1.01" ry="1.28"/>
          <ellipse cx="23.79" cy="145.88" rx=".66" ry=".84"/>
          <ellipse cx="54.97" cy="136.51" rx="1.91" ry="2.42"/>
          <ellipse cx="62.69" cy="136.51" rx="1.76" ry="2.24"/>
          <ellipse cx="70.53" cy="136.51" rx="1.62" ry="2.05"/>
          <ellipse cx="78.22" cy="136.51" rx="1.24" ry="1.58"/>
          <ellipse cx="86.02" cy="136.51" rx=".7" ry=".89"/>
          <ellipse cx="39.39" cy="136.51" rx="1.91" ry="2.42"/>
          <ellipse cx="31.54" cy="136.35" rx="1.67" ry="2.12"/>
          <ellipse cx="23.97" cy="136.35" rx="1.41" ry="1.78"/>
          <ellipse cx="15.95" cy="136.35" rx="1.01" ry="1.28"/>
          <ellipse cx="8.08" cy="136.35" rx=".44" ry=".56"/>
          <ellipse cx="39.39" cy="126.61" rx="2.32" ry="2.95"/>
          <ellipse cx="31.58" cy="126.61" rx="2.11" ry="2.67"/>
          <ellipse cx="23.78" cy="126.61" rx="1.85" ry="2.35"/>
          <ellipse cx="16.03" cy="126.61" rx="1.59" ry="2.02"/>
          <ellipse cx="8.06" cy="126.61" rx=".98" ry="1.25"/>
          <ellipse cx=".46" cy="126.61" rx=".46" ry=".59"/>
          <ellipse cx="54.97" cy="126.61" rx="2.32" ry="2.95"/>
          <ellipse cx="62.79" cy="126.61" rx="2.11" ry="2.67"/>
          <ellipse cx="70.58" cy="126.61" rx="1.85" ry="2.35"/>
          <ellipse cx="78.34" cy="126.61" rx="1.59" ry="2.02"/>
          <ellipse cx="86.3" cy="126.61" rx=".98" ry="1.25"/>
          <ellipse cx="93.9" cy="117.07" rx="1.36" ry="1.73"/>
          <ellipse cx="101.65" cy="117.07" rx=".74" ry=".95"/>
          <ellipse cx="101.65" cy="107.28" rx="1.1" ry="1.39"/>
          <ellipse cx="101.65" cy="97.38" rx="1.34" ry="1.7"/>
          <ellipse cx="93.74" cy="97.38" rx="1.96" ry="2.48"/>
          <ellipse cx="101.65" cy="87.73" rx="1.7" ry="2.16"/>
          <ellipse cx="93.91" cy="87.73" rx="2.16" ry="2.74"/>
          <ellipse cx="101.65" cy="78.29" rx="1.7" ry="2.16"/>
          <ellipse cx="93.91" cy="78.29" rx="2.16" ry="2.74"/>
          <ellipse cx="101.65" cy="68.4" rx="1.51" ry="1.92"/>
          <ellipse cx="93.74" cy="68.4" rx="2.32" ry="2.95"/>
          <ellipse cx="101.65" cy="58.74" rx="1.46" ry="1.85"/>
          <ellipse cx="93.93" cy="58.74" rx="2.14" ry="2.71"/>
          <ellipse cx="86.03" cy="58.74" rx="2.51" ry="3.19"/>
          <ellipse cx="86.32" cy="48.92" rx="2.23" ry="2.83"/>
          <ellipse cx="86.08" cy="39.38" rx="1.99" ry="2.53"/>
          <ellipse cx="86.13" cy="29.56" rx="1.54" ry="1.96"/>
          <ellipse cx="86.15" cy="20.07" rx="1.17" ry="1.48"/>
          <ellipse cx="78.45" cy="20.07" rx="1.58" ry="2.01"/>
          <ellipse cx="78.31" cy="29.56" rx="1.73" ry="2.2"/>
          <ellipse cx="77.84" cy="39.7" rx="2.2" ry="2.79"/>
          <ellipse cx="77.59" cy="49.4" rx="2.45" ry="3.11"/>
          <ellipse cx="86.15" cy="10.07" rx=".52" ry=".66"/>
          <ellipse cx="78.14" cy="10.07" rx=".83" ry="1.06"/>
          <ellipse cx="69.19" cy="17.37" rx="1.78" ry="2.26"/>
          <ellipse cx="69.02" cy="28.05" rx="1.95" ry="2.47"/>
          <ellipse cx="68.5" cy="39.45" rx="2.47" ry="3.13"/>
          <ellipse cx="68.21" cy="50.36" rx="2.75" ry="3.49"/>
          <ellipse cx="68.83" cy="6.12" rx=".94" ry="1.19"/>
          <ellipse cx="60.82" cy="13.69" rx="1.96" ry="2.49"/>
          <ellipse cx="60.64" cy="25.45" rx="2.14" ry="2.72"/>
          <ellipse cx="60.06" cy="37.99" rx="2.72" ry="3.45"/>
          <ellipse cx="59.75" cy="50.01" rx="3.03" ry="3.84"/>
          <ellipse cx="60.43" cy="1.31" rx="1.03" ry="1.31"/>
          <ellipse cx="101.65" cy="48.92" rx="1.25" ry="1.59"/>
          <ellipse cx="93.73" cy="48.92" rx="1.94" ry="2.46"/>
          <ellipse cx="101.65" cy="39.38" rx=".85" ry="1.08"/>
          <ellipse cx="93.96" cy="39.38" rx="1.48" ry="1.88"/>
          <ellipse cx="101.65" cy="29.56" rx=".38" ry=".48"/>
          <ellipse cx="93.83" cy="29.56" rx="1" ry="1.27"/>
          <ellipse cx="93.83" cy="20.07" rx=".5" ry=".64"/>
          <ellipse cx="109.45" cy="48.92" rx=".38" ry=".48"/>
          <ellipse cx="109.45" cy="58.76" rx=".61" ry=".77"/>
          <ellipse cx="109.45" cy="68.33" rx=".87" ry="1.11"/>
          <ellipse cx="109.45" cy="78.14" rx=".87" ry="1.11"/>
          <ellipse cx="109.45" cy="87.73" rx=".87" ry="1.11"/>
          <ellipse cx="109.45" cy="97.61" rx=".59" ry=".75"/>
          <ellipse cx="93.9" cy="126.61" rx=".46" ry=".59"/>
        </g>
        <g>
          <g>
            <path class="cls-5" d="M107.96,133.98c-2.61,1.22-3.5,2.22-4.6,5.21-1.06-3.01-1.92-4.03-4.52-5.3,2.61-1.22,3.5-2.22,4.6-5.21,1.06,3.01,1.92,4.03,4.52,5.3Z"/>
            <path class="cls-2" d="M103.29,130.33c-.19.4-.38.8-.6,1.18-.21.39-.43.77-.7,1.11-.25.33-.61.57-1,.75-.39.18-.82.3-1.23.38l-.59.11.57.2c.35.12.7.31,1.03.51.33.21.63.45.91.71.28.27.53.56.74.89.23.32.39.67.55,1.03-.1-.38-.23-.76-.43-1.11-.19-.35-.43-.68-.7-.98-.27-.3-.58-.57-.92-.79-.34-.23-.7-.42-1.1-.57l-.03.3c.46-.08.9-.22,1.32-.41.41-.2.82-.48,1.08-.88.25-.38.45-.78.63-1.18.17-.41.33-.82.45-1.25Z"/>
            <path class="cls-7" d="M106.33,133.21c-.52-.32-1.01-.7-1.42-1.18-.82-.95-1.3-2.12-1.7-3.26h.48c-.41,1.14-.9,2.3-1.73,3.25-.82.97-1.96,1.53-3.05,2v-.25c1.06.57,2.12,1.2,2.91,2.15.78.95,1.3,2.07,1.74,3.2h-.38c.4-1.14.89-2.3,1.71-3.24.41-.47.91-.85,1.43-1.16.53-.31,1.08-.57,1.62-.74-.54-.2-1.09-.46-1.61-.78ZM106.45,134.95c-.49.34-.92.74-1.28,1.19-.74.9-1.17,2.03-1.61,3.13h0c-.02.06-.06.11-.12.13-.11.04-.22-.02-.26-.13-.37-1.13-.74-2.3-1.49-3.23-.73-.95-1.82-1.52-2.9-2.01-.03-.01-.05-.03-.06-.06-.03-.07,0-.15.06-.18h0c1.05-.55,2.09-1.16,2.81-2.06.73-.89,1.17-2.01,1.6-3.12.03-.07.08-.12.15-.15.13-.05.28.02.33.15.41,1.12.81,2.25,1.52,3.18.35.46.78.87,1.26,1.22.47.35.98.66,1.52.99-.53.33-1.05.62-1.53.96Z"/>
          </g>
          <path class="cls-3" d="M105.94,133.96c-1.46.68-1.95,1.24-2.56,2.91-.59-1.68-1.07-2.25-2.52-2.95,1.46-.68,1.95-1.24,2.56-2.91.59,1.68,1.07,2.25,2.52,2.95Z"/>
        </g>
        <g>
          <g>
            <path class="cls-1" d="M121.68,107.32c-1.61.75-2.15,1.36-2.83,3.2-.65-1.85-1.18-2.48-2.78-3.26,1.61-.75,2.15-1.36,2.83-3.2.65,1.85,1.18,2.48,2.78,3.26Z"/>
            <path class="cls-2" d="M118.81,105.08c-.12.25-.23.49-.37.73-.13.24-.26.47-.43.68-.15.21-.38.35-.62.46-.24.11-.5.19-.76.23l-.36.07.35.12c.22.07.43.19.63.31.2.13.39.27.56.44.17.16.33.35.46.55.14.19.24.41.34.63-.06-.23-.14-.46-.26-.68-.11-.22-.26-.42-.43-.6-.17-.19-.36-.35-.57-.49-.21-.14-.43-.26-.67-.35l-.02.19c.29-.05.55-.13.81-.25.25-.12.5-.3.66-.54.16-.23.28-.48.39-.73.1-.25.2-.51.27-.77Z"/>
            <path class="cls-7" d="M120.68,106.84c-.32-.2-.62-.43-.87-.72-.5-.59-.8-1.3-1.05-2h.29c-.25.7-.55,1.41-1.06,2-.51.59-1.2.94-1.88,1.23v-.15c.65.35,1.3.74,1.79,1.32.48.58.8,1.28,1.07,1.97h-.24c.25-.7.55-1.41,1.05-1.99.25-.29.56-.52.88-.71.32-.19.66-.35,1-.46-.33-.12-.67-.28-.99-.48ZM120.75,107.91c-.3.21-.56.45-.79.73-.45.56-.72,1.25-.99,1.93h0s-.04.07-.08.08c-.07.02-.14-.01-.16-.08-.23-.7-.45-1.41-.91-1.99-.45-.58-1.12-.94-1.78-1.24-.02,0-.03-.02-.04-.04-.02-.04,0-.09.03-.11h0c.65-.34,1.28-.71,1.73-1.27.45-.55.72-1.24.98-1.92.02-.04.05-.08.09-.09.08-.03.17.01.2.1.25.69.5,1.39.94,1.95.22.28.48.53.77.75.29.22.6.4.93.61-.33.2-.65.38-.94.59Z"/>
          </g>
          <path class="cls-4" d="M120.44,107.31c-.9.42-1.2.76-1.58,1.79-.36-1.03-.66-1.38-1.55-1.81.9-.42,1.2-.76,1.58-1.79.36,1.03.66,1.38,1.55,1.81Z"/>
        </g>
        <g>
          <rect class="cls-8" x="100.86" y="34.44" width="1.56" height="3.68"/>
          <rect class="cls-8" x="100.86" y="40.42" width="1.56" height="3.68"/>
          <rect class="cls-8" x="103.85" y="37.43" width="1.56" height="3.68" transform="translate(143.9 -65.36) rotate(90)"/>
          <rect class="cls-8" x="97.88" y="37.43" width="1.56" height="3.68" transform="translate(137.93 -59.39) rotate(90)"/>
        </g>
        <g>
          <rect class="cls-8" x="7.28" y="121.79" width="1.56" height="3.68"/>
          <rect class="cls-8" x="7.28" y="127.76" width="1.56" height="3.68"/>
          <rect class="cls-8" x="10.27" y="124.78" width="1.56" height="3.68" transform="translate(137.66 115.56) rotate(90)"/>
          <rect class="cls-8" x="4.29" y="124.78" width="1.56" height="3.68" transform="translate(131.69 121.54) rotate(90)"/>
        </g>
      </g>
    </g>
  </g>
</svg>